<?xml version="1.0" standalone="no"?>
<!DOCTYPE svg PUBLIC "-//W3C//DTD SVG 20010904//EN"
 "http://www.w3.org/TR/2001/REC-SVG-20010904/DTD/svg10.dtd">
<svg version="1.0" xmlns="http://www.w3.org/2000/svg"
 width="512.000000pt" height="512.000000pt" viewBox="0 0 512.000000 512.000000"
 preserveAspectRatio="xMidYMid meet">
<metadata>
Created by potrace 1.14, written by Peter Selinger 2001-2017
</metadata>
<g transform="translate(0.000000,512.000000) scale(0.100000,-0.100000)"
fill="#000000" stroke="none">
<path d="M2136 5113 c-4 -4 -17 -8 -29 -10 -12 -1 -38 -5 -57 -9 -19 -3 -39
-7 -45 -8 -5 -1 -16 -5 -22 -9 -7 -5 -13 -6 -13 -3 0 3 -18 -1 -40 -9 -22 -8
-40 -12 -40 -10 0 2 -18 -2 -39 -10 -22 -7 -42 -11 -45 -8 -3 4 -6 2 -6 -4 0
-5 -6 -10 -12 -11 -19 -1 -39 -7 -71 -20 -16 -7 -35 -12 -43 -12 -8 0 -14 -5
-14 -12 0 -6 -3 -9 -6 -5 -3 3 -30 -5 -59 -18 -30 -13 -56 -21 -59 -17 -3 3
-6 0 -6 -6 0 -7 -4 -12 -10 -12 -12 0 -163 -71 -170 -80 -7 -9 -43 -24 -52
-22 -5 1 -8 -2 -8 -6 0 -10 -50 -37 -62 -34 -5 1 -8 -2 -8 -8 0 -5 -14 -17
-31 -25 -36 -19 -172 -116 -211 -151 -16 -13 -28 -23 -28 -21 0 9 -93 -77
-200 -183 -115 -116 -170 -176 -170 -185 0 -3 -2 -4 -5 -2 -3 1 -13 -10 -23
-24 -39 -61 -86 -124 -94 -127 -4 -2 -8 -8 -8 -12 0 -12 -62 -104 -72 -108 -4
-2 -8 -9 -8 -17 0 -7 -7 -18 -15 -25 -8 -7 -13 -16 -10 -20 3 -5 1 -11 -5 -15
-6 -3 -17 -21 -25 -38 -8 -18 -19 -39 -25 -47 -23 -34 -114 -241 -112 -252 1
-5 -2 -8 -6 -8 -5 0 -9 -6 -9 -12 0 -7 -10 -42 -22 -78 -29 -85 -32 -94 -32
-100 -1 -3 -5 -11 -11 -17 -6 -7 -8 -13 -4 -13 3 0 0 -15 -8 -34 -8 -19 -12
-36 -10 -39 3 -2 0 -16 -6 -31 -5 -15 -12 -39 -15 -54 -35 -188 -34 -183 -43
-252 -9 -71 -8 -581 1 -640 4 -25 12 -72 17 -105 14 -90 80 -349 90 -359 6 -6
10 -18 10 -29 0 -31 102 -270 163 -382 21 -38 43 -81 50 -95 6 -14 16 -30 22
-36 5 -6 19 -27 30 -47 11 -20 23 -37 27 -37 5 0 8 -5 8 -11 0 -6 21 -37 46
-70 25 -32 43 -59 40 -59 -3 0 5 -10 17 -23 12 -13 38 -43 57 -68 45 -57 272
-285 329 -330 24 -19 62 -49 85 -67 80 -63 181 -132 194 -132 6 0 12 -4 14 -8
3 -8 112 -72 173 -102 17 -8 33 -18 36 -23 3 -5 9 -8 13 -7 4 1 26 -7 49 -18
121 -56 213 -91 228 -88 3 0 13 -5 22 -13 10 -7 17 -10 17 -6 0 4 7 2 15 -5 8
-7 15 -10 15 -7 0 3 25 -3 55 -13 30 -10 55 -16 55 -13 0 3 6 1 13 -5 6 -6 15
-11 20 -11 4 -1 8 -1 10 -2 1 0 13 -2 27 -4 14 -3 54 -12 90 -20 36 -9 78 -16
93 -15 16 0 33 -3 39 -6 41 -26 657 -26 774 0 12 2 37 7 55 10 90 15 263 57
275 68 7 5 16 8 20 7 5 -1 12 0 17 1 4 1 10 3 15 4 29 7 221 80 250 96 9 4 48
23 86 40 38 18 102 52 143 76 41 24 76 44 79 44 5 0 198 132 204 140 3 3 20
16 38 29 136 95 335 305 528 556 9 11 27 40 41 65 15 25 32 52 38 60 44 55
219 418 231 480 0 3 3 12 7 20 15 38 53 166 62 210 2 8 4 16 5 18 3 2 4 6 13
52 49 243 51 260 51 555 1 236 -2 308 -19 415 -6 39 -44 229 -49 245 -2 6 -4
12 -4 15 0 3 -5 17 -11 33 -6 15 -13 38 -15 50 -7 35 -89 261 -97 267 -4 3 -9
14 -11 25 -1 11 -5 22 -8 25 -5 5 -39 77 -40 85 -1 2 -16 32 -35 66 -19 33
-35 65 -35 70 0 5 -3 9 -8 9 -4 0 -14 15 -22 33 -7 17 -22 41 -32 51 -10 11
-18 26 -18 33 0 7 -4 13 -10 13 -5 0 -10 7 -10 15 0 8 -4 15 -10 15 -5 0 -10
7 -10 15 0 8 -3 15 -8 15 -4 0 -18 18 -32 40 -14 22 -28 40 -32 40 -5 0 -8 7
-8 16 0 8 -4 12 -10 9 -5 -3 -10 -1 -10 4 0 11 -21 39 -57 78 -13 13 -23 26
-23 29 0 2 -20 24 -44 49 -24 24 -42 46 -38 49 3 3 1 6 -4 6 -5 0 -44 33 -86
73 -41 39 -84 79 -94 87 -11 8 -42 34 -71 58 -28 23 -56 42 -62 42 -6 0 -11 4
-11 8 0 10 -117 92 -131 92 -5 0 -9 5 -9 10 0 6 -7 10 -15 10 -8 0 -15 4 -15
9 0 5 -8 11 -17 14 -24 8 -76 40 -85 52 -4 6 -8 6 -8 1 0 -5 -8 -3 -17 5 -10
8 -49 29 -88 48 -38 18 -82 40 -97 48 -15 7 -30 14 -33 13 -3 0 -18 6 -33 14
-15 8 -36 16 -47 18 -11 1 -22 6 -25 9 -5 5 -186 65 -225 74 -11 2 -38 9 -60
15 -22 6 -49 13 -60 14 -11 2 -31 6 -45 9 -14 4 -38 10 -55 14 -39 9 -870 14
-879 6z"/>
</g>
</svg>
